<svg width="134" height="158" viewBox="0 0 134 158" fill="none" xmlns="http://www.w3.org/2000/svg">
<path d="M67 0C67.6146 0 68.2273 0.00821424 68.8379 0.0244141C69.2856 0.0362926 69.7322 0.0537269 70.1777 0.0742188C70.7549 0.100765 71.3301 0.133962 71.9033 0.174805C72.2671 0.200723 72.6301 0.229125 72.9922 0.260742C73.4502 0.300735 73.9069 0.345503 74.3623 0.394531C74.7095 0.431911 75.0558 0.472064 75.4014 0.514648C75.531 0.530628 75.6606 0.546768 75.79 0.563477C76.2283 0.620046 76.6651 0.681223 77.1006 0.746094C77.2214 0.764096 77.3422 0.782143 77.4629 0.800781C78.2049 0.915401 78.9431 1.04031 79.6768 1.17871C80.1598 1.26984 80.6408 1.36746 81.1201 1.46875C81.1813 1.48169 81.2425 1.49471 81.3037 1.50781C81.3927 1.52688 81.4814 1.54699 81.5703 1.56641C81.757 1.60719 81.9438 1.64714 82.1299 1.68945C82.5318 1.78083 82.932 1.87712 83.3311 1.97559C83.6781 2.06123 84.0242 2.14928 84.3691 2.24023C84.623 2.30717 84.8763 2.37552 85.1289 2.44531C85.1923 2.46283 85.256 2.47937 85.3193 2.49707C86.5374 2.83738 87.741 3.21175 88.9297 3.61719C89.0361 3.65349 89.1428 3.68878 89.249 3.72559C89.9033 3.95242 90.5524 4.19042 91.1973 4.43652C92.0757 4.77181 92.9456 5.12386 93.8057 5.49414C94.2076 5.66718 94.6071 5.84485 95.0049 6.02539C95.5934 6.29252 96.1776 6.56728 96.7568 6.85059C97.4115 7.17077 98.0599 7.50136 98.7021 7.8418C98.7685 7.87699 98.8351 7.91186 98.9014 7.94727C99.3103 8.16577 99.7164 8.38865 100.12 8.61523C100.184 8.65105 100.248 8.68664 100.312 8.72266C100.923 9.06866 101.528 9.42478 102.128 9.78906C102.218 9.84407 102.309 9.89868 102.399 9.9541C103.189 10.439 103.967 10.9401 104.734 11.4561C104.865 11.5437 104.995 11.6312 105.125 11.7197C105.48 11.9621 105.832 12.2091 106.182 12.458C106.252 12.508 106.323 12.5572 106.393 12.6074C106.493 12.6796 106.593 12.7525 106.693 12.8252C106.821 12.918 106.949 13.0108 107.076 13.1045C108.281 13.9921 109.455 14.9191 110.596 15.8828C110.665 15.9414 110.735 15.9997 110.804 16.0586C111.159 16.3615 111.511 16.6684 111.86 16.9785C111.909 17.0222 111.959 17.0656 112.008 17.1094C112.09 17.1833 112.173 17.2577 112.255 17.332C112.376 17.4412 112.497 17.5501 112.617 17.6602C116.071 20.8243 119.184 24.3443 121.898 28.1592C121.954 28.2373 122.01 28.3152 122.065 28.3936C122.472 28.9699 122.869 29.5531 123.257 30.1426C123.305 30.2158 123.353 30.2889 123.401 30.3623C130.109 40.6414 134 52.8728 134 66C134 67.5009 133.948 68.9899 133.848 70.4658C131.658 106.435 105.795 138.062 67 157.759V132C29.9969 132 0 102.451 0 66C0 29.5492 29.9969 0 67 0Z" fill="#005E58"/>
<path d="M67 0C101.341 0 129.647 25.4508 133.542 58.249C123.896 90.7867 99.3159 117.446 67 132V107C34.5392 107 7.39222 85.5926 0.624023 56.96C5.0978 24.7863 33.1101 0 67 0Z" fill="#009689"/>
<path d="M67 0C67.9208 0 68.8372 0.0194163 69.749 0.0556641C88.8381 0.82026 105.902 9.51226 117.788 22.9531C123.137 29.0715 127.366 36.1667 130.162 43.9307C118.009 71.3755 95.4137 94.0235 67 107V81.9951C66.8335 81.9963 66.6668 82 66.5 82C38.2135 82 14.0519 65.5342 4.44043 42.3223C14.0713 17.6459 38.3154 0.11082 66.7314 0.000976562C66.821 0.00183508 66.9105 0.00325254 67 0.00390625V0Z" fill="#47ECD4"/>
</svg>
